{
  "1389340": {
    "name": "Passion At All Costs - Documentary",
    "steam_appid": 1389340,
    "required_age": 0,
    "is_free": true,
    "description": "Co-Founders Alexander Mejia, and Sophie Wright sit down and talk about their journey from 2015 to 2020 making Starship Commander Arcade.  Watch their journey from working on Starship Commander as a hobby project, to making their big break with Microsoft catapulting their company, Human Interact into the lime light.  As publishers of VR games focused on motion controls, Starship Commander failed to raise enough money with their innovative voice dialogue systems, and were forced to make a hard choice: Release Starship Commander as an arcade only experience, or fold the company.<br><br>This film has a runtime of 52 minutes, and is DRM free.  <br><br><br><br><strong>Technical Specs:</strong><br>Video<br>Format                         : AVC<br>Format profile                 : High@L5.1<br>Duration                       : 52 min 21 s<br>Bit rate                       : 9 517 kb/s<br>Width                          : 3 840 pixels<br>Height                         : 2 160 pixels<br>Display aspect ratio           : 16:9<br>Frame rate mode                : Constant<br>Frame rate                     : 23.976 (24000/1001) FPS<br>Color space                    : YUV<br>Chroma subsampling             : 4:2:0<br>Bit depth                      : 8 bits<br>Scan type                      : Progressive<br>Stream size                    : 3.48 GiB (97%)<br>Writing library                : x264 core 157 r2981 b5bc5d6<br>Encoding settings              : cabac=1 / ref=5 / deblock=1:-1:-1 / analyse=0x3:0x113 / me=hex / subme=8 / psy=1 / psy_rd=1.00:0.15 / mixed_ref=1 / me_range=16 / chroma_me=1 / trellis=2 / 8x8dct=1 / cqm=0 / deadzone=21,11 / fast_pskip=1 / chroma_qp_offset=-3 / threads=48 / lookahead_threads=8 / sliced_threads=0 / nr=0 / decimate=1 / interlaced=0 / bluray_compat=0 / constrained_intra=0 / bframes=3 / b_pyramid=2 / b_adapt=1 / b_bias=0 / direct=3 / weightb=1 / open_gop=0 / weightp=2 / keyint=250 / keyint_min=23 / scenecut=40 / intra_refresh=0 / rc_lookahead=50 / rc=crf / mbtree=1 / crf=24.0 / qcomp=0.60 / qpmin=0 / qpmax=69 / qpstep=4 / ip_ratio=1.40 / aq=1:1.00<br><br>Audio<br>Format                         : AAC<br>Format profile                 : LC<br>Duration                       : 52 min 21 s<br>Bit rate mode                  : Variable<br>Bit rate                       : 310 kb/s<br>Maximum bit rate               : 320 kb/s<br>Channel(s)                     : 2 channels<br>Channel positions              : Front: L R<br>Sampling rate                  : 48.0 kHz<br>Frame rate                     : 46.875 FPS (1024 SPF)<br>Compression mode               : Lossy<br>Stream size                    : 116 MiB (3%)",
    "supported_languages": "英语<strong>*</strong><br><strong>*</strong>具有完全音频支持的语言",
    "header_image": "https://shared.akamai.steamstatic.com/store_item_assets/steam/apps/1389340/header.jpg?t=1599756945",
    "developers": [
      "Human Interact"
    ],
    "publishers": [],
    "price_overview": {},
    "release_date": {
      "coming_soon": false,
      "date": "2020 年 9 月 10 日"
    },
    "categories": [
      {
        "id": 2,
        "description": "单人"
      },
      {
        "id": 21,
        "description": "DLC"
      },
      {
        "id": 62,
        "description": "家庭共享"
      }
    ],
    "genres": [
      {
        "id": "25",
        "description": "冒险"
      },
      {
        "id": "23",
        "description": "独立"
      }
    ],
    "achievements": "none",
    "has_chinese": "false",
    "app_reviews": {
      "review_score_desc": "No user reviews",
      "total_positive": 0,
      "total_negative": 0,
      "total_reviews": 0
    }
  }
}